<svg xmlns="http://www.w3.org/2000/svg" xmlns:xlink="http://www.w3.org/1999/xlink" xml:space="preserve" version="1.1" style="shape-rendering:geometricPrecision;text-rendering:geometricPrecision;image-rendering:optimizeQuality;" viewBox="0 0 720 797.5" x="0px" y="0px" fill-rule="evenodd" clip-rule="evenodd"><defs><style type="text/css">
   
    .fil0 {fill:black}
   
  </style></defs><g><path class="fil0" d="M421 35c-26,44 -255,128 -352,125 -3,0 -2,2 2,3 62,24 343,-65 369,-120 40,18 77,45 106,78 -76,71 -383,181 -519,175 -5,0 -2,3 3,5 95,39 467,-90 537,-154 20,30 36,63 46,99 1,4 2,7 3,10 -128,75 -438,177 -581,177 -6,0 -3,4 3,5 102,33 492,-98 584,-147 6,52 -1,103 -19,149 -127,62 -344,129 -452,128 -5,0 -2,3 2,4 76,27 353,-60 431,-92 -136,240 -500,199 -573,-72 -66,-247 176,-460 410,-373z"/><path class="fil0" d="M568 146c-7,-11 -13,-19 -20,-27 44,-46 -21,-56 -53,-50 27,-23 178,-21 73,77z"/><path class="fil0" d="M623 290c-2,-16 -4,-24 -6,-35 93,-57 31,-74 -23,-74 44,-39 205,15 29,109z"/><path class="fil0" d="M585 480c9,-16 15,-29 20,-41 147,-81 7,-91 29,-94 128,-22 113,84 -49,135z"/><path class="fil0" d="M441 41c-7,-2 -12,-4 -19,-7 31,-30 -36,-20 -47,-18 25,-16 98,-35 66,25z"/></g></svg>