<svg xmlns="http://www.w3.org/2000/svg" data-name="Layer 1" viewBox="0 0 128 160" x="0px" y="0px"><title>99 Miscellaneous 24 final</title><path d="M55.06,124H43.37a2,2,0,1,0,0,4H55.06a2,2,0,0,0,0-4Z"/><path d="M52.06,118a2,2,0,0,0-2-2h-10a7,7,0,1,0,0,4h10A2,2,0,0,0,52.06,118Z"/><path d="M78.57,62.66l-1.37.92-.1.06V68.3c.31-.17.63-.33.94-.51l1.85,1.85a3.72,3.72,0,0,0,5.14,0L89.64,65a3.63,3.63,0,0,0,0-5.14L87.79,58a27.26,27.26,0,0,0,3-7.15h2.62A3.64,3.64,0,0,0,97,47.26V40.74a3.64,3.64,0,0,0-3.63-3.63H90.75a27.26,27.26,0,0,0-3-7.15l1.85-1.85a3.63,3.63,0,0,0,0-5.14L85,18.36a3.72,3.72,0,0,0-5.14,0L78,20.21a27.24,27.24,0,0,0-7.15-3V14.63A3.64,3.64,0,0,0,67.26,11H60.74a3.64,3.64,0,0,0-3.63,3.63v2.62a27.24,27.24,0,0,0-7.15,3l-1.85-1.85a3.72,3.72,0,0,0-5.14,0L38.36,23a3.63,3.63,0,0,0,0,5.14L40.21,30a27.26,27.26,0,0,0-3,7.15H34.63A3.64,3.64,0,0,0,31,40.74v6.53a3.64,3.64,0,0,0,3.63,3.63h2.62a27.26,27.26,0,0,0,3,7.15l-1.85,1.85a3.63,3.63,0,0,0,0,5.14L43,69.64a3.72,3.72,0,0,0,5.14,0L50,67.79c.3.18.61.33.91.5V63.63l-.07,0-1.37-.92-3.89,3.89-4.09-4.09,3.89-3.89-.92-1.37a23.39,23.39,0,0,1-3.6-8.69l-.31-1.62H35V41.11h5.5l.31-1.62a23.39,23.39,0,0,1,3.6-8.69l.92-1.37-3.89-3.89,4.09-4.09,3.89,3.89,1.37-.92a23.35,23.35,0,0,1,8.69-3.6l1.62-.31V15h5.79v5.5l1.62.31a23.35,23.35,0,0,1,8.69,3.6l1.37.92,3.89-3.89,4.09,4.09-3.89,3.89.92,1.37a23.39,23.39,0,0,1,3.6,8.69l.31,1.62H93v5.79H87.5l-.31,1.62a23.39,23.39,0,0,1-3.6,8.69l-.92,1.37,3.89,3.89-4.09,4.09Z"/><path d="M107,99.42a7,7,0,0,0-6.71,5H80.82c.32-3.8.77-6.92,1-8.21l.06-.44c1.33-9.36,7.49-18,13.44-26.28,1.6-2.23,3.1-4.33,4.55-6.5,3.33-5.21,7.16-12.29,7.16-20.9C107,18.89,87.71,0,64,0S21,18.89,21,42.12a40.49,40.49,0,0,0,8.14,24.29c1.07,1.44,2.16,2.86,3.25,4.28,5.71,7.45,11.1,14.48,13.2,23.54l.09.37a64.88,64.88,0,0,1,1.61,13H43.37a2,2,0,0,0,0,4h13.5a2,2,0,0,0,2-2V62.26a18,18,0,0,0,10.23,0v56.19a2,2,0,0,0,2,2H84.29a7,7,0,1,0,0-4H73.1V60.54a17.63,17.63,0,0,0-1.23-31.27A2,2,0,0,0,69,31.07V41.4l-5,3.22L59,41.4V31.07a2,2,0,0,0-2.87-1.8,17.63,17.63,0,0,0-1.26,31.25v47.12H51.29a69,69,0,0,0-1.72-14l-.08-.34c-2.29-9.9-8.21-17.61-13.92-25.07-1.07-1.4-2.15-2.81-3.21-4.23A36.51,36.51,0,0,1,25,42.12C25,21.1,42.5,4,64,4s39,17.1,39,38.12c0,7.58-3.49,14-6.5,18.71C95.1,62.91,93.62,65,92,67.19c-6.23,8.71-12.68,17.72-14.15,28l-.06.42c-.23,1.57-.84,5.75-1.16,10.67,0,0,0,0,0,.06s0,0,0,.06,0,.09,0,.14a2,2,0,0,0,0,.21c0,.06,0,.13,0,.19s0,.13.06.19.05.12.08.17l.09.17.11.15.12.15.14.13.15.13.16.1.17.09.18.07.19.06.2,0,.14,0h21.74a7,7,0,1,0,6.7-9Z"/></svg>