<svg xmlns="http://www.w3.org/2000/svg" xmlns:xlink="http://www.w3.org/1999/xlink" version="1.1" x="0px" y="0px" viewBox="0 0 100 125" enable-background="new 0 0 100 100" xml:space="preserve"><g><path d="M87.97,3.54c-0.1-0.06-0.22-0.09-0.35-0.09H27.23c-4.55,0-8.25,3.71-8.25,8.26v74.25H4.97c-0.01,0-0.01,0-0.01,0   c-0.46,0-0.83,0.37-0.83,0.83c0,4.54,3.7,8.24,8.25,8.25c0,0,0,0,0.01,0H72.77c4.551,0,8.25-3.7,8.25-8.25   c0-0.08-0.01-0.14-0.029-0.21c0.02-0.07,0.029-0.14,0.029-0.21V12.61H95.04c0.46,0,0.83-0.37,0.83-0.83   C95.87,7.35,92.36,3.72,87.97,3.54z M79.36,11.75v74.62c0,0.07,0.01,0.14,0.029,0.21c-0.02,0.06-0.029,0.13-0.029,0.21   c0,3.63-2.96,6.59-6.591,6.59c-3.64,0-6.59-2.96-6.6-6.59c0-0.46-0.37-0.83-0.83-0.83h-44.7V11.71c0-0.23,0.01-0.46,0.03-0.68   c0.34-3.32,3.15-5.92,6.56-5.92h52.96v0.01h2.569C80.71,6.61,79.37,9.03,79.36,11.75z"/><path d="M73.782,55.067H26.217c-0.459,0-0.831,0.371-0.831,0.83s0.372,0.832,0.831,0.832h47.565c0.459,0,0.83-0.373,0.83-0.832   C74.614,55.438,74.241,55.067,73.782,55.067z"/><path d="M73.782,60.884H26.217c-0.459,0-0.831,0.373-0.831,0.831c0,0.459,0.372,0.831,0.831,0.831h47.565   c0.459,0,0.83-0.372,0.83-0.831C74.614,61.257,74.241,60.884,73.782,60.884z"/><path d="M73.782,66.702H26.217c-0.459,0-0.831,0.372-0.831,0.831c0,0.46,0.372,0.831,0.831,0.831h47.565   c0.459,0,0.83-0.371,0.83-0.831C74.614,67.074,74.241,66.702,73.782,66.702z"/><path d="M73.782,72.519H26.217c-0.459,0-0.831,0.373-0.831,0.832s0.372,0.832,0.831,0.832h47.565c0.459,0,0.83-0.373,0.83-0.832   C74.614,72.892,74.241,72.519,73.782,72.519z"/><path d="M73.782,78.337H26.217c-0.459,0-0.831,0.372-0.831,0.831S25.758,80,26.217,80h47.565c0.459,0,0.83-0.373,0.83-0.832   S74.241,78.337,73.782,78.337z"/><path d="M35.77,47.3c-0.4,0-0.72,0.32-0.72,0.72v0.48c0,0.39,0.32,0.72,0.72,0.72h28.46c0.39,0,0.72-0.33,0.72-0.72v-0.48   c0-0.4-0.33-0.72-0.72-0.72H35.77z"/><path d="M70.18,26.44c1.4,0,2.54-1.13,2.54-2.53c0-1.4-1.14-2.53-2.54-2.53c-1.399,0-2.529,1.13-2.529,2.53   C67.65,25.31,68.78,26.44,70.18,26.44z"/><path d="M29.82,26.44c1.39,0,2.53-1.13,2.53-2.53c0-1.4-1.14-2.53-2.53-2.53c-1.4,0-2.54,1.13-2.54,2.53   C27.28,25.31,28.42,26.44,29.82,26.44z"/><circle cx="50" cy="13.81" r="3.77"/><path d="M36.23,45.63h27.54l4.591-17.95c-0.561-0.27-1.051-0.65-1.431-1.13c-1.39,0.47-2.83,0.71-4.31,0.71   c-5.32,0-10.18-3.2-12.31-8.03c-0.1,0-0.21,0.01-0.31,0.01s-0.21-0.01-0.31-0.01c-2.13,4.83-7,8.03-12.31,8.03   c-1.48,0-2.92-0.24-4.31-0.71c-0.38,0.48-0.87,0.87-1.43,1.13L36.23,45.63z"/><polygon points="89.82,93.89 92.23,89.2 87.41,89.2  "/><path d="M93.43,21.08c-0.01,0-0.02,0-0.04-0.01c-0.06-0.01-0.13-0.02-0.189-0.02h-6.75c-0.07,0-0.141,0.01-0.2,0.02   c-0.01,0.01-0.02,0.01-0.04,0.01c-0.44,0.11-0.77,0.51-0.77,0.98c0,0.56,0.449,1.01,1.01,1.01h6.75c0.55,0,1.01-0.45,1.01-1.01   C94.21,21.59,93.87,21.19,93.43,21.08z"/><rect x="86.88" y="24.74" width="2.11" height="62.8"/><rect x="90.66" y="24.74" width="2.1" height="62.8"/><rect x="86.88" y="16.91" width="5.88" height="2.48"/></g></svg>