<svg xmlns="http://www.w3.org/2000/svg" xmlns:xlink="http://www.w3.org/1999/xlink" xml:space="preserve" version="1.1" style="shape-rendering:geometricPrecision;text-rendering:geometricPrecision;image-rendering:optimizeQuality;" viewBox="0 0 7891 12812.5" x="0px" y="0px" fill-rule="evenodd" clip-rule="evenodd"><defs><style type="text/css">
   
    .fil0 {fill:black}
   
  </style></defs><g><path class="fil0" d="M4565 788c428,84 826,252 1174,487l381 -381c98,-97 257,-97 354,0l523 523c97,97 97,256 0,354l-381 380c235,349 403,747 487,1175l538 0c137,0 250,112 250,250l0 739c0,138 -113,250 -250,250l-538 0c-84,428 -252,826 -487,1175l381 380c97,98 97,257 0,354l-144 144c-25,-19 -50,-38 -77,-57 -180,-125 -428,-204 -637,-268 -135,-42 -356,-95 -477,-158 -76,-39 -141,-80 -202,-125 634,-466 1046,-1217 1046,-2065 0,-1414 -1146,-2560 -2561,-2560 -1414,0 -2560,1146 -2560,2560 0,848 411,1599 1046,2065 -61,45 -126,86 -202,125 -121,63 -342,116 -477,158 -210,64 -457,143 -637,268 -27,19 -52,38 -77,57l-144 -144c-97,-97 -97,-256 0,-354l381 -381c-235,-349 -403,-746 -487,-1174l-538 0c-138,0 -250,-112 -250,-250l0 -739c0,-138 112,-250 250,-250l538 0c84,-428 252,-826 487,-1175l-381 -380c-97,-98 -97,-257 0,-354l523 -523c97,-97 256,-97 354,0l381 381c348,-235 746,-403 1174,-487l0 -538c0,-138 112,-250 250,-250l739 0c138,0 250,112 250,250l0 538zm80 4873l0 416c0,76 -32,141 -91,187l-665 514 -666 -514c-59,-46 -91,-111 -91,-187l0 -425 -52 -55c-97,-102 -148,-220 -157,-360l-16 -238 -3 -1c-47,-15 -87,-31 -116,-56 -30,-24 -50,-56 -72,-119 -22,-64 -48,-159 -66,-244 -18,-85 -29,-160 -34,-226 -5,-65 -4,-121 12,-164 15,-44 56,-79 85,-88 28,-9 43,-3 56,-6 13,-4 -6,-11 -7,-17l0 -9c-3,-3 -6,-7 -9,-11l0 0c-107,-141 -187,-419 -210,-667 -22,-248 14,-467 50,-685 67,42 134,84 256,18 123,-66 301,-240 504,-361 203,-120 431,-187 666,-176 235,11 477,101 615,219 138,119 171,266 205,413 107,-3 214,-5 291,121 77,126 125,381 107,605 -18,223 -102,415 -186,516 -8,8 -15,17 -23,24l-1 7c22,2 42,6 61,14 41,15 78,43 96,94 17,52 15,128 8,203 -6,75 -17,151 -35,226 -18,76 -43,152 -66,206 -22,54 -42,86 -72,111 -29,24 -69,41 -116,55 -9,3 -18,5 -27,8l-15 230c-9,139 -60,256 -155,357l-61 65zm-1715 506c55,275 110,551 144,788 34,237 46,435 58,633 56,-117 111,-235 173,-323 61,-89 129,-147 196,-206 144,227 194,107 282,351l-123 2840c-861,0 -2175,0 -3035,0 67,-594 135,-2141 244,-2546 109,-404 260,-617 496,-782 237,-164 836,-278 1065,-396 229,-118 364,-238 500,-359l0 0zm2031 0c-55,275 -110,551 -144,788 -34,237 -46,435 -58,633 -56,-117 -111,-235 -173,-323 -61,-89 -129,-147 -196,-206 -138,217 -188,118 -287,347l163 2844c861,0 2140,0 3000,0 -67,-594 -135,-2141 -244,-2546 -109,-404 -260,-617 -496,-782 -237,-164 -836,-278 -1065,-396 -229,-118 -364,-238 -500,-359l0 0z"/></g></svg>